<svg width="119" height="40" viewBox="0 0 119 40" fill="none" xmlns="http://www.w3.org/2000/svg">
    <path d="M44.64 19L44.6 12.62L41.56 17.74H39.48L36.44 12.84V19H32.14V5H36.02L40.58 12.46L45.02 5H48.9L48.94 19H44.64ZM56.862 19.2C55.6487 19.2 54.5554 18.96 53.582 18.48C52.622 17.9867 51.8687 17.3133 51.322 16.46C50.7754 15.5933 50.502 14.6133 50.502 13.52C50.502 12.4267 50.7754 11.4533 51.322 10.6C51.8687 9.73333 52.622 9.06 53.582 8.58C54.5554 8.1 55.6487 7.86 56.862 7.86C58.0887 7.86 59.182 8.1 60.142 8.58C61.1154 9.06 61.8687 9.73333 62.402 10.6C62.9487 11.4533 63.222 12.4267 63.222 13.52C63.222 14.6133 62.9487 15.5933 62.402 16.46C61.8687 17.3133 61.1154 17.9867 60.142 18.48C59.182 18.96 58.0887 19.2 56.862 19.2ZM56.862 15.68C57.382 15.68 57.8087 15.4933 58.142 15.12C58.4754 14.7333 58.642 14.2 58.642 13.52C58.642 12.84 58.4754 12.3133 58.142 11.94C57.8087 11.5667 57.382 11.38 56.862 11.38C56.342 11.38 55.9154 11.5667 55.582 11.94C55.2487 12.3133 55.082 12.84 55.082 13.52C55.082 14.2 55.2487 14.7333 55.582 15.12C55.9154 15.4933 56.342 15.68 56.862 15.68ZM76.5238 8.06L72.1238 19H67.4438L63.0437 8.06H67.6838L69.8838 13.92L72.2438 8.06H76.5238ZM77.2148 8.06H81.7348V19H77.2148V8.06ZM79.4748 7.18C78.6615 7.18 78.0015 6.96667 77.4948 6.54C77.0015 6.1 76.7548 5.54667 76.7548 4.88C76.7548 4.21333 77.0015 3.66667 77.4948 3.24C78.0015 2.8 78.6615 2.58 79.4748 2.58C80.3015 2.58 80.9615 2.78667 81.4548 3.2C81.9482 3.61333 82.1948 4.14667 82.1948 4.8C82.1948 5.49333 81.9482 6.06667 81.4548 6.52C80.9615 6.96 80.3015 7.18 79.4748 7.18ZM95.3783 13.52C95.3783 13.5867 95.3583 13.94 95.3183 14.58H87.7183C87.8783 14.9933 88.1449 15.3133 88.5183 15.54C88.8916 15.7533 89.3583 15.86 89.9183 15.86C90.3983 15.86 90.7983 15.8 91.1183 15.68C91.4516 15.56 91.8116 15.3533 92.1983 15.06L94.5583 17.44C93.4916 18.6133 91.8983 19.2 89.7783 19.2C88.4583 19.2 87.2983 18.96 86.2983 18.48C85.2983 17.9867 84.5249 17.3067 83.9783 16.44C83.4316 15.5733 83.1583 14.6 83.1583 13.52C83.1583 12.4267 83.4249 11.4533 83.9583 10.6C84.5049 9.73333 85.2449 9.06 86.1783 8.58C87.1249 8.1 88.1849 7.86 89.3583 7.86C90.4649 7.86 91.4716 8.08 92.3783 8.52C93.2983 8.96 94.0249 9.60667 94.5583 10.46C95.1049 11.3133 95.3783 12.3333 95.3783 13.52ZM89.3983 10.94C88.9316 10.94 88.5449 11.0667 88.2383 11.32C87.9316 11.5733 87.7316 11.9333 87.6383 12.4H91.1583C91.0649 11.9467 90.8649 11.5933 90.5583 11.34C90.2516 11.0733 89.8649 10.94 89.3983 10.94Z" fill="url(#paint0_linear)"/>
    <path d="M41.4 27.62H45.5V33.54C44.6733 34.1133 43.7133 34.5533 42.62 34.86C41.5267 35.1667 40.4533 35.32 39.4 35.32C37.9067 35.32 36.5667 35.0133 35.38 34.4C34.1933 33.7733 33.26 32.9067 32.58 31.8C31.9133 30.68 31.58 29.4133 31.58 28C31.58 26.5867 31.9133 25.3267 32.58 24.22C33.26 23.1 34.2 22.2333 35.4 21.62C36.6133 20.9933 37.98 20.68 39.5 20.68C40.8733 20.68 42.1 20.9133 43.18 21.38C44.2733 21.8333 45.18 22.5 45.9 23.38L42.88 26.04C42 25.0133 40.9533 24.5 39.74 24.5C38.7 24.5 37.8733 24.8133 37.26 25.44C36.6467 26.0667 36.34 26.92 36.34 28C36.34 29.0533 36.64 29.9 37.24 30.54C37.8533 31.18 38.6667 31.5 39.68 31.5C40.28 31.5 40.8533 31.3867 41.4 31.16V27.62ZM51.6711 25.24C52.4711 24.32 53.6511 23.86 55.2111 23.86V27.86C54.8511 27.8067 54.5178 27.78 54.2111 27.78C52.6644 27.78 51.8911 28.5667 51.8911 30.14V35H47.3711V24.06H51.6711V25.24ZM61.2945 23.86C63.2145 23.86 64.6812 24.2933 65.6945 25.16C66.7079 26.0133 67.2145 27.3333 67.2145 29.12V35H63.0145V33.56C62.4945 34.6533 61.4612 35.2 59.9145 35.2C59.0479 35.2 58.3079 35.0533 57.6945 34.76C57.0945 34.4533 56.6345 34.0467 56.3145 33.54C56.0079 33.02 55.8545 32.44 55.8545 31.8C55.8545 30.72 56.2679 29.9 57.0945 29.34C57.9212 28.78 59.1745 28.5 60.8545 28.5H62.6745C62.5279 27.6467 61.8412 27.22 60.6145 27.22C60.1212 27.22 59.6212 27.3 59.1145 27.46C58.6079 27.6067 58.1745 27.8133 57.8145 28.08L56.3745 25.1C57.0012 24.7133 57.7545 24.4133 58.6345 24.2C59.5279 23.9733 60.4145 23.86 61.2945 23.86ZM61.2745 32.48C61.5945 32.48 61.8812 32.3933 62.1345 32.22C62.3879 32.0467 62.5745 31.7867 62.6945 31.44V30.68H61.5745C60.6545 30.68 60.1945 30.9867 60.1945 31.6C60.1945 31.8533 60.2879 32.0667 60.4745 32.24C60.6745 32.4 60.9412 32.48 61.2745 32.48ZM76.468 23.86C77.428 23.86 78.308 24.0933 79.108 24.56C79.9213 25.0133 80.5613 25.6733 81.028 26.54C81.508 27.3933 81.748 28.3867 81.748 29.52C81.748 30.6533 81.508 31.6533 81.028 32.52C80.5613 33.3867 79.9213 34.0533 79.108 34.52C78.308 34.9733 77.428 35.2 76.468 35.2C75.1213 35.2 74.1213 34.8333 73.468 34.1V35H69.168V20.16H73.688V24.8C74.328 24.1733 75.2546 23.86 76.468 23.86ZM75.388 31.68C75.908 31.68 76.3346 31.4933 76.668 31.12C77.0013 30.7333 77.168 30.2 77.168 29.52C77.168 28.84 77.0013 28.3133 76.668 27.94C76.3346 27.5667 75.908 27.38 75.388 27.38C74.868 27.38 74.4413 27.5667 74.108 27.94C73.7746 28.3133 73.608 28.84 73.608 29.52C73.608 30.2 73.7746 30.7333 74.108 31.12C74.4413 31.4933 74.868 31.68 75.388 31.68ZM90.4719 23.86C91.4319 23.86 92.3119 24.0933 93.1119 24.56C93.9252 25.0133 94.5652 25.6733 95.0319 26.54C95.5119 27.3933 95.7519 28.3867 95.7519 29.52C95.7519 30.6533 95.5119 31.6533 95.0319 32.52C94.5652 33.3867 93.9252 34.0533 93.1119 34.52C92.3119 34.9733 91.4319 35.2 90.4719 35.2C89.1252 35.2 88.1252 34.8333 87.4719 34.1V35H83.1719V20.16H87.6919V24.8C88.3319 24.1733 89.2585 23.86 90.4719 23.86ZM89.3919 31.68C89.9119 31.68 90.3385 31.4933 90.6719 31.12C91.0052 30.7333 91.1719 30.2 91.1719 29.52C91.1719 28.84 91.0052 28.3133 90.6719 27.94C90.3385 27.5667 89.9119 27.38 89.3919 27.38C88.8719 27.38 88.4452 27.5667 88.1119 27.94C87.7785 28.3133 87.6119 28.84 87.6119 29.52C87.6119 30.2 87.7785 30.7333 88.1119 31.12C88.4452 31.4933 88.8719 31.68 89.3919 31.68ZM108.816 29.52C108.816 29.5867 108.796 29.94 108.756 30.58H101.156C101.316 30.9933 101.582 31.3133 101.956 31.54C102.329 31.7533 102.796 31.86 103.356 31.86C103.836 31.86 104.236 31.8 104.556 31.68C104.889 31.56 105.249 31.3533 105.636 31.06L107.996 33.44C106.929 34.6133 105.336 35.2 103.216 35.2C101.896 35.2 100.736 34.96 99.7358 34.48C98.7358 33.9867 97.9624 33.3067 97.4158 32.44C96.8691 31.5733 96.5958 30.6 96.5958 29.52C96.5958 28.4267 96.8624 27.4533 97.3958 26.6C97.9424 25.7333 98.6824 25.06 99.6158 24.58C100.562 24.1 101.622 23.86 102.796 23.86C103.902 23.86 104.909 24.08 105.816 24.52C106.736 24.96 107.462 25.6067 107.996 26.46C108.542 27.3133 108.816 28.3333 108.816 29.52ZM102.836 26.94C102.369 26.94 101.982 27.0667 101.676 27.32C101.369 27.5733 101.169 27.9333 101.076 28.4H104.596C104.502 27.9467 104.302 27.5933 103.996 27.34C103.689 27.0733 103.302 26.94 102.836 26.94ZM114.542 25.24C115.342 24.32 116.522 23.86 118.082 23.86V27.86C117.722 27.8067 117.389 27.78 117.082 27.78C115.536 27.78 114.762 28.5667 114.762 30.14V35H110.242V24.06H114.542V25.24Z" fill="url(#paint1_linear)"/>
    <path d="M13.5661 8.59011C4.48925 11.0285 1.31555 11.9093 1.31555 11.9822C1.31555 12.0404 1.70855 13.5545 2.18915 15.3524L3.06275 18.6134V25.0481C3.06275 29.4737 3.08465 31.6136 3.14285 31.8758C3.41225 33.1787 4.43855 34.256 5.73425 34.5908C6.09095 34.6853 7.48835 34.7 15.8521 34.7C22.6726 34.7 25.6642 34.6781 25.9336 34.6199C27.1636 34.3652 28.3285 33.2222 28.6051 31.9994C28.6561 31.7957 28.6852 29.2481 28.6852 25.0406V18.395L16.42 18.3803L4.15475 18.3584L8.68955 17.1428C11.179 16.4804 16.4926 15.0539 20.4961 13.9838C24.4996 12.9137 27.7825 12.0329 27.7969 12.0185C27.8116 12.0113 27.4183 10.4972 26.9233 8.64831C26.239 6.07881 25.999 5.29281 25.9189 5.30001C25.8604 5.30001 20.2993 6.78501 13.5661 8.59011ZM24.6448 9.16521C24.7975 9.74031 24.9361 10.2425 24.9505 10.2863C24.9868 10.3883 22.774 10.9922 22.7086 10.8905C22.6285 10.7594 22.1188 8.77971 22.1554 8.74311C22.1917 8.70681 24.1426 8.15361 24.2881 8.13891C24.3319 8.13891 24.4921 8.59731 24.6448 9.16521ZM20.0881 10.2206C20.2192 10.6937 20.35 11.174 20.3938 11.2907C20.4301 11.4146 20.4376 11.531 20.4085 11.5601C20.3503 11.6111 18.4285 12.1352 18.2974 12.1352C18.232 12.1352 17.6569 10.1918 17.6569 9.98781C17.6569 9.92241 19.4695 9.39081 19.7386 9.37641C19.8334 9.36891 19.9135 9.56571 20.0881 10.2206ZM15.6769 11.6474C15.8371 12.2369 15.9535 12.7394 15.9316 12.7538C15.8806 12.812 13.7551 13.3871 13.726 13.358C13.6822 13.3217 13.0999 11.1743 13.1218 11.1524C13.1656 11.1086 15.2545 10.5554 15.3202 10.5629C15.3568 10.5701 15.517 11.0579 15.6769 11.6474ZM10.9165 12.0041C11.0911 12.5792 11.4478 13.9622 11.4259 13.9841C11.4115 13.9988 10.9456 14.1296 10.3924 14.2754C9.84635 14.4209 9.35135 14.5592 9.30035 14.5811C9.22745 14.603 9.11825 14.3045 8.89985 13.5038C8.73965 12.8924 8.61605 12.383 8.63045 12.3611C8.66675 12.3248 10.6249 11.786 10.756 11.7788C10.8001 11.771 10.873 11.8802 10.9165 12.0041ZM6.66575 14.1296C6.81125 14.6828 6.90605 15.1631 6.86945 15.1922C6.76025 15.2867 4.78775 15.7817 4.72955 15.7235C4.65665 15.6434 4.12535 13.598 4.16165 13.5545C4.18355 13.5398 4.67105 13.3943 5.24615 13.2416C5.97395 13.0451 6.31625 12.9797 6.34535 13.0379C6.37445 13.0814 6.51275 13.5689 6.66575 14.1296ZM26.3554 26.1182V31.5119L26.1952 31.7957C26.0935 31.9778 25.9258 32.1305 25.7365 32.2253C25.438 32.3708 25.3216 32.3708 15.7789 32.3564C6.16325 32.3345 6.12695 32.3345 5.93045 32.1818C5.82125 32.1017 5.66105 31.9415 5.58095 31.8323C5.42795 31.6358 5.42795 31.5557 5.40635 26.1767L5.39165 20.7248H15.8734H26.3551V26.1182H26.3554Z" fill="url(#paint2_linear)"/>
    <defs>
        <linearGradient id="paint0_linear" x1="63.5" y1="0" x2="63.5" y2="24" gradientUnits="userSpaceOnUse">
            <stop stop-color="#EF2222"/>
            <stop offset="1" stop-color="#D91616" stop-opacity="0.54"/>
        </linearGradient>
        <linearGradient id="paint1_linear" x1="75" y1="16" x2="75" y2="40" gradientUnits="userSpaceOnUse">
            <stop stop-color="#EF2222"/>
            <stop offset="1" stop-color="#D91616" stop-opacity="0.54"/>
        </linearGradient>
        <linearGradient id="paint2_linear" x1="15.0004" y1="34.7" x2="15.0004" y2="5.29996" gradientUnits="userSpaceOnUse">
            <stop stop-color="#EF2222"/>
            <stop offset="1" stop-color="#D91616" stop-opacity="0.54"/>
        </linearGradient>
    </defs>
</svg>
